<?xml version="1.0" encoding="utf-8"?>
<!-- Generator: Adobe Illustrator 22.1.0, SVG Export Plug-In . SVG Version: 6.00 Build 0)  -->
<svg version="1.1" id="Layer_1" xmlns="http://www.w3.org/2000/svg" xmlns:xlink="http://www.w3.org/1999/xlink" x="0px" y="0px"
	 viewBox="0 0 500 500" style="enable-background:new 0 0 500 500;" xml:space="preserve">
<style type="text/css">
	.st0{fill:#FFFFFF;}
</style>
<g>
	<path class="st0" d="M321.5,205.2c31.8,0,63.4,0,95.2,0c0.8-4.2,1.6-8.4,2.4-12.5c1.9-10.2,3.8-20.4,5.8-30.6
		c0.3-1.7-0.1-2.3-1.8-2.8c-27.6-8.4-55.7-14.9-83.9-21c-1.8-0.4-3.6-0.9-5.4-1.5c-2.9-1-4.8-3-5.2-5.9c-0.6-4.7-0.9-9.4-1.4-14.4
		c39.6,9.9,78.6,19.6,117.9,29.4c-3.1,20-6.2,39.9-9.4,59.9c19.6,0,39,0,58.8,0c-1.3,2.1-2.3,3.9-3.5,5.5c-0.4,0.5-1.4,0.8-2.1,0.9
		c-2.1,0.2-4.2,0.3-6.3,0.3c-114.1,0-228.2,0-342.4,0c-36.9,0-73.8,0-110.7-0.1c-4.1,0-8.2,0.2-12.2-0.1c-3.7-0.3-7.3-1.2-11.1-1.9
		c0.4-1.6,0.6-2.8,0.9-4.2c19,0,37.9,0,56.9,0c-0.5-3.4-1-6.7-1.6-10c-2.1-12.2-4.3-24.4-6.3-36.6c-0.3-2.1-0.5-4.2-0.4-6.3
		c0.1-3.7,2.1-6.5,5.4-7.8c3.8-1.5,7.7-2.5,11.7-3.5c22-5.5,43.9-11,65.9-16.5c10.5-2.6,20.9-5.4,31.4-8.1c0.2-0.1,0.4-0.1,0.9-0.1
		c0.2,5.2,1.2,10.2-0.3,15.2c-0.6,2.2-2.2,3.7-4.3,4.4c-4.1,1.2-8.2,2.3-12.3,3.3c-24.4,5.8-48.7,11.5-73.1,17.3
		c-2.2,0.5-4.4,1-6.8,1.6c0.5,3.1,1.1,6.1,1.6,9.1c2.2,12.1,4.4,24.1,6.6,36.2c0.2,0.9,0.4,1.4,1.5,1.4c30.8,0,61.5,0,92.3,0
		c0.2,0,0.4,0,0.8-0.1c0-1.5,0-3,0-4.4c-0.9-25.5,0.4-50.9,5.6-76c4.7-22.5,12.2-44,25-63.4c8.7-13.2,19.3-24.8,33-33.4
		c2.1-1.3,4.4-2.4,6.5-3.6c1.5-0.9,2.7-0.8,4.2,0c7.7,3.8,14.5,8.9,20.7,14.7c14.7,13.8,24.9,30.4,32.5,48.7
		c7.4,17.9,11.8,36.6,14.3,55.7c2.6,19.6,3.2,39.3,2.4,59C321.5,203.7,321.5,204.4,321.5,205.2z M252.4,168.7
		c-0.2,0.1-0.5,0.1-0.7,0.2c0.2,2.6,0.1,5.3,0.8,7.8c1.6,6.3,8.8,10.6,14.6,8.9c2.5-0.7,4.4-2.4,6.2-4.2c0.6-0.6,2-1.2,2.6-0.9
		c0.8,0.3,1.6,1.6,1.5,2.4c-0.1,1.3-0.6,3-1.6,3.8c-6.9,5.8-14.4,7.1-22,1.1c-0.5-0.4-1-0.8-1.9-1.5c0,6.6,0,12.7,0,18.8
		c19.8,0,39.8,0,60.2,0c0-7.5,0.1-14.9,0-22.3c-0.2-21.9-2.3-43.7-7.6-65c-4.6-18.6-11.5-36.2-22.1-52.4
		c-7.2-11-16.1-20.5-26.3-28.8c-4.8-3.9-8.8-3.3-13.3,0.1c-3.1,2.3-5.9,5.2-8.7,7.9c-11.3,10.9-20.1,23.6-26.8,37.6
		c-11.5,24-16.8,49.5-19.1,75.7c-1.2,13.6-1.4,27.2-1,40.8c0.1,2.3,0,4.6,0,6.7c20.3,0,40.1,0,59.9,0c0-6.4,0-12.5,0-18.6
		c-2.1,1.1-4,2.4-6,3.3c-7,3.1-13.3,1.4-18.4-4.7c-1.7-2-1.4-5.2,0.5-7.1c7.5,8.2,11.8,9.6,17.8,5.7c5.3-3.5,8-10.3,5.7-14.9
		c-1,0.6-2.1,1.1-3.1,1.7c-3.3,2.1-6.9,2.6-10.8,1.6c-1.7-0.5-3.4-0.9-5.1-1.4c-1.8-0.5-3-2.4-2.6-4.2c0.3-1.5,1.2-2.1,2.7-1.6
		c0.9,0.3,1.7,0.8,2.6,1.2c5.8,2.5,10.6,1,14.2-4.1c2.4-3.5,2.8-7.5,3.5-11.5c-0.3,0.1-0.5,0.1-0.6,0.2c-0.9,0.5-1.8,1-2.6,1.6
		c-4.6,3.3-9.6,4.2-15.1,2.3c-2-0.7-2.6-1.7-1.8-3.8c0.6-1.9,1.6-2.4,3.7-1.7c4.8,1.8,8.7,0.3,12.1-3c3.6-3.5,4.6-7.8,3.7-12.7
		c-2.7,1.3-5.2,2.8-7.8,3.5c-2.7,0.7-5.6,0.4-8.3,0.6c-0.7-3.9,0.6-5.4,4.4-5.7c5.1-0.4,8.7-2.9,10.7-7.5c1.2-2.9,1.5-6,1-9.4
		c-2,1.2-3.8,2.4-5.6,3.2c-1.7,0.7-3.5,1.3-5.3,1.4c-2.1,0.2-2.4-0.5-2-2.5c0.5-2.1,2-3,3.9-3.7c6.8-2.3,10.7-8.9,8.9-15.3
		c-3.3,1.5-6.5,3-9.8,4.6c-0.6-3.6,0.5-5.9,3.9-7.8c5.2-3,7.7-9,6.1-14.7c-2.1,1-4.1,2.1-6,3c-1.2-0.7-1.3-1.4-0.7-2.4
		c1.4-2.2,2.5-4.4,4.1-6.5c2.7-3.6,3.9-7.4,2.9-12c-1.4,0.5-2.6,1-4,1.6c-0.4-6.7,4.2-11.2,6.4-16.5c1.2,2,2.2,3.9,3.3,5.8
		c0.9,1.5,1.9,2.9,2.6,4.5c0.8,1.8,1.2,3.8,0.8,5.9c-1.2-0.4-2.3-0.8-3.5-1.3c-0.2,0.8-0.4,1.5-0.5,2.2c-0.3,3.9,1.2,7.2,3.4,10.4
		c1.4,2,2.5,4.2,3.8,6.2c0.7,1.1,0.4,1.8-0.7,2.5c-1.9-1.1-3.9-2.3-5.9-3.4c-1.6,5.3,0.3,10.8,4.7,14.4c1.7,1.4,3,3.1,4.5,4.7
		c1.3,1.3,0.8,2.4-0.4,3.5c-3-1.5-6-2.9-9.1-4.4c-1.1,4.2-0.6,7.8,2,11.1c2.7,3.4,6.2,5.3,10.7,5c2.4-0.2,3.4,0.7,3.5,2.6
		c0.2,2.3-0.3,2.7-2.9,3.1c-4.3,0.6-7.9-0.8-11.3-3.3c-0.7-0.5-1.3-1-2-1.5c-2.6,7.1,1.4,14.8,8.6,16.8c2.8,0.8,5.5,0.5,8.1-0.7
		c0.6-0.3,1.3-0.9,1.9,0.2c0.8,1.5-0.2,4.8-1.8,5.5c-2.8,1.3-5.7,1.7-8.6,0.6c-2.5-1-4.8-2.2-7.3-3.3c-0.4-0.2-0.9-0.4-1.3-0.5
		c-1.2,6.1,0.2,11.1,5.5,14.7c6.4,4.3,11.4,1.3,16.2-2.8c1.9,1.5,2.1,5.3,0.3,6.5c-2.1,1.3-4.3,2.6-6.6,3.3
		c-4.7,1.5-8.9,0.1-12.9-2.4c-0.8-0.5-1.6-1.1-2.7-1.9c0,2.3-0.2,4.3,0,6.2c1,7.1,8.6,12,15.1,9.6c1.9-0.7,3.6-2.2,5.3-3.5
		c1-0.8,2-1.2,3-0.3c1.1,1,0.8,5.3-0.5,6c-2.4,1.4-4.9,2.9-7.5,3.7c-4.7,1.4-8.9-0.1-12.9-2.7C254.1,169.9,253.3,169.3,252.4,168.7z
		"/>
	<path class="st0" d="M491.7,341.6c0.3,1.5,0.5,2.9,0.9,4.7c-3.4,0.7-6.7,1.8-10,1.9c-21.7,0.2-43.5,0.2-65.2,0.2c-10,0-20,0-30-0.2
		c-6.9-0.1-12,2.7-16,8.1c-6.3,8.6-12.6,17.1-19.2,25.5c-13.9,17.6-29.1,34.1-45,49.9c-16.6,16.5-33.9,32.1-51.8,47.2
		c-0.3,0.3-0.6,0.5-1.1,0.9c-1.8-1.7-3.6-3.5-5.4-5.2c-19.5-19-39.1-37.8-58.4-57c-13.7-13.6-25.3-29-37.4-44.1
		c-4.7-5.9-9.5-11.7-14.4-17.5c-4.1-4.9-9.2-7.4-15.8-7.4c-36.7,0-73.4-0.2-110.1-0.3c-1.1,0-2.3-0.1-3.4-0.2
		c-1.6-0.2-3.1-1.5-3.1-2.6c0-1.3,1.6-3.3,3-3.5s2.8-0.3,4.2-0.3c35.5,0,70.9,0,106.4,0c123.1,0,246.3,0,369.4,0
		C490.1,341.6,490.8,341.6,491.7,341.6z M289.9,386.7c-9.2-2-17.6-5.6-24.8-11.5c-7.3-6-11.7-13.7-13.1-23.1
		c-1.3,9.5-5.7,17.2-13.1,23.3c-7.2,5.9-15.6,9.5-24.8,11.5c-0.2-0.7-0.4-1.2-0.5-1.6c-3.2-11.4-6.4-22.9-9.6-34.4
		c-0.3-1.1-0.5-1.8-2-1.8c-14.6,0.1-29.3,0-43.9,0c-0.4,0-0.8,0.1-1.4,0.2c28.6,39.3,62.2,73.7,98.9,105.5
		c36.4-32.1,70.3-66.2,98.6-105.6c-0.5-0.1-0.7-0.1-0.9-0.1c-17.3,0-34.5,0-51.8,0c-1.2,0-1.4,0.5-1.6,1.4c-2,7.6-4.1,15.2-6.2,22.8
		C292.6,377.8,291.2,382.1,289.9,386.7z M283.4,376.8c2.5-9.3,5-18.3,7.6-27.5c-11.3,0-22.2,0-33.4,0
		C262,362.2,270.6,371.2,283.4,376.8z M246.1,349.3c-11.3,0-22,0-33,0c2.6,9.3,5.1,18.4,7.6,27.6c7.8-2.9,14-7.6,18.4-14.1
		C241.8,358.7,243.7,354,246.1,349.3z"/>
	<path class="st0" d="M116.5,278.5c0.6-4.6,1.1-9.1,1.7-13.7c1-8.6,2.1-17.2,3.1-25.8c0.2-1.7,1.1-2.6,3-2.6c2.4-0.1,4.7,0,7.4,0
		c-3.4,27.4-6.8,54.7-10.2,82.1c-2.9,0-5.8,0-8.8,0c-1.7-12.2-3.4-24.3-5.2-36.5c-0.1,0-0.2,0-0.4,0c-1.7,12.2-3.4,24.3-5.1,36.6
		c-2.9,0-5.7,0-8.7,0c-3.5-27.3-6.9-54.5-10.4-81.9c2.8,0,5.4-0.1,8.1,0c1.5,0.1,2,1.4,2.2,2.7c0.9,7.4,1.9,14.8,2.8,22.1
		c0.7,5.6,1.4,11.1,2.5,16.7c0.3-1.8,0.6-3.6,0.9-5.5c0.9-5.8,1.8-11.6,2.5-17.5c0.8-6,3-7.7,9.4-7.1c1.6,10.1,3.3,20.2,4.9,30.3
		C116.4,278.4,116.5,278.4,116.5,278.5z"/>
	<path class="st0" d="M173.7,318.5c-3.5,0-6.9,0-10.4,0c-2.3-17-4.6-34.1-6.8-51.1c-0.1,0-0.2,0-0.4,0c-2.3,17-4.6,34-6.8,51.1
		c-3.5,0-6.8,0-10.4,0c4.2-27.4,8.5-54.7,12.7-82c2.1,0,4-0.1,5.9,0c2.3,0.2,3.5,1.3,3.9,3.7c1,5.5,1.8,11.1,2.7,16.6
		c2.7,17.2,5.4,34.4,8,51.6C172.7,311.7,173.2,315,173.7,318.5z"/>
	<path class="st0" d="M303.9,309.3c-1.2,2.6-2.2,4.9-3.4,7.1c-0.8,1.4-2.3,2-3.9,2c-10.6,0-21.2,0-31.8,0c-0.1,0-0.2-0.1-0.4-0.2
		c1.1-3.1,2.1-6.3,3.2-9.4c7-20.3,14-40.7,21-61c0.7-1.9,0.4-2.3-1.7-2.3c-3,0-5.9,0-8.9,0c-2.6,0-4.4-1.1-5.5-3.5
		c-0.8-1.9-1.6-3.7-2.5-5.7c11.3,0,22.3,0,33.6,0c-0.2,0.6-0.3,1.2-0.5,1.8c-7.9,22.7-15.8,45.5-23.7,68.2c-0.1,0.3-0.2,0.6-0.3,1
		c-0.4,1.6-0.1,2,1.6,2c7,0,14.1,0,21.1,0C302.4,309.3,303,309.3,303.9,309.3z"/>
	<path class="st0" d="M351.2,236.3c-1.3,2.6-2.3,4.9-3.5,7.2c-0.9,1.5-2.5,2.1-4.2,2.1c-2.3,0-4.5,0-6.8,0c-1.3,0-2.1,0.5-2.1,1.8
		c0,7.7,0,15.3,0,23c0,0.1,0.1,0.2,0.2,0.4c4.1,0,8.3,0,12.9,0c-1.3,2.7-2.2,5.3-3.7,7.4c-0.7,1-2.5,1.4-3.8,1.7
		c-1,0.3-2.1,0-3.2,0.1c-2,0-2.4,0.5-2.4,2.4c0,8,0,16,0,24c0,0.9,0,1.8,0,2.8c6,0,11.9,0,18.2,0c-1.4,2.7-2.3,5.3-3.8,7.5
		c-0.6,0.9-2.3,1.6-3.5,1.7c-6.7,0.2-13.4,0.1-20.2,0.1c0-0.7-0.1-1.2-0.1-1.8c0-25.5,0-51.1,0-76.6c0-2.8,1-3.8,3.9-3.8
		C336.3,236.3,343.6,236.3,351.2,236.3z"/>
	<path class="st0" d="M464.3,245.5c-4.1,0-7.9,0-11.9,0c0-2.4-0.1-4.6,0.1-6.9c0.1-1.5,1.5-2.3,3.4-2.3c6.9,0,13.8,0,20.8,0
		c4.4,0,8.7,0,13.5,0c-1.4,2.7-2.4,5.4-4,7.6c-0.7,1-2.5,1.3-3.9,1.5c-1.9,0.3-3.8,0.1-5.8,0.1c-2.4,0-2.8,0.4-2.8,2.7
		c0,14.3,0,28.5,0,42.8c0,8.5,0,17,0,25.5c0,0.6,0,1.2,0,2c-2.5,0-4.8,0.1-7.1,0c-1.5-0.1-2.3-1-2.3-2.6c0-4.1,0-8.2,0-12.3
		c0-18.5,0-37.1,0-55.6C464.3,247.2,464.3,246.5,464.3,245.5z"/>
	<path class="st0" d="M13.6,236.4c2.2,0,4.3-0.1,6.3,0c2.1,0.2,3,1.4,3,3.7c0,22.4,0,44.7,0,67.1c0,0.7,0,1.3,0,2.1
		c6.5,0,12.8,0,19.7,0c-1.4,2.7-2.4,5.3-3.9,7.6c-0.6,0.9-2.3,1.6-3.5,1.6c-7.1,0.1-14.3,0.1-21.5,0.1
		C13.6,291.1,13.6,263.8,13.6,236.4z"/>
	<path class="st0" d="M192.6,236.4c2.2,0,4.2-0.1,6.3,0c2.1,0.2,3,1.5,3,3.9c0,22.2,0,44.4,0,66.6c0,0.7,0,1.4,0,2.4
		c6.5,0,12.8,0,19.6,0c-1.2,2.6-2.1,5.1-3.5,7.1c-0.7,1.1-2.5,2-3.8,2c-7.1,0.2-14.3,0.1-21.6,0.1
		C192.6,291.2,192.6,263.9,192.6,236.4z"/>
	<path class="st0" d="M57.8,236.4c2.1,0,4.1-0.1,6,0c2.2,0.2,3.4,1.7,3.4,4c0,10.3,0,20.6,0,31c0,15,0,30,0,44.9c0,0.7,0,1.3,0,2.1
		c-2.6,0-5,0.1-7.4,0c-1.3-0.1-2.1-1.1-2.1-2.4c0-0.3,0-0.6,0-0.8c0-25.7,0-51.4,0-77.1C57.7,237.6,57.7,237,57.8,236.4z"/>
	<path class="st0" d="M236.7,236.3c2.1,0,3.8-0.1,5.6,0c2.5,0.1,3.8,1.5,3.8,4c0,4.2,0,8.4,0,12.7c0,21.1,0,42.2,0,63.3
		c0,0.7,0,1.4,0,2.3c-2.5,0-4.8,0.1-7.1,0c-1.6-0.1-2.3-1-2.3-2.9c0-9.5,0-19.1,0-28.6c0-16.2,0-32.3,0-48.5
		C236.7,237.8,236.7,237.2,236.7,236.3z"/>
	<path class="st0" d="M424.2,236.4c2.2,0,4.2-0.1,6.1,0c2,0.2,3.2,1.6,3.3,3.6c0,0.3,0,0.7,0,1c0,25.2,0,50.4,0,75.6
		c0,0.6,0,1.1,0,1.8c-2.6,0-5,0.1-7.5,0c-1.2-0.1-1.9-1-1.9-2.2c0-0.4,0-0.8,0-1.2c0-25.5,0-51.1,0-76.6
		C424.2,237.8,424.2,237.2,424.2,236.4z"/>
	<path class="st0" d="M244.5,404.2c0.5-2.3,0.9-4.6,1.4-6.8c0.1-0.5,0.8-1,1.2-1.5c0.2,0.1,0.4,0.2,0.6,0.3c0,4.6,0,9.2,0,13.8
		c0,0.3-0.5,0.5-0.7,0.8c-0.2-0.3-0.7-0.6-0.7-0.9c-0.1-1.7,0-3.4-0.3-5.2c-0.3,1.1-0.6,2.3-1,3.6c-2.3-0.4-1.5-2.5-2.5-3.9
		c0,2,0,3.6,0,5.3c0,1-0.3,1.5-1.5,1c0-4.7,0-9.5,0-14.2c1.4-0.2,1.4-0.2,1.7,1c0.5,2.3,1,4.5,1.5,6.8
		C244.2,404.2,244.3,404.2,244.5,404.2z"/>
	<path class="st0" d="M251.4,396.2c0.9,0,1.7,0,2.4,0c1.4,0,2.1,0.7,2.1,2.1c-0.1,1.7-0.4,3.4-0.4,5c0,1.2,0.3,2.5,0.4,3.7
		c0.3,3.4-0.5,4.2-4.5,3.6C251.4,405.9,251.4,401.1,251.4,396.2z M252.8,402.7c1.7-0.2,1.9-0.8,1.6-3.9c-0.1-1.1-0.6-1.3-1.6-1.1
		C252.8,399.4,252.8,401,252.8,402.7z M252.9,404.2c0,1.7,0,3.3,0,5.1c2.5-0.3,1.3-2.1,1.5-3.2C254.5,405.2,254.7,403.9,252.9,404.2
		z"/>
	<path class="st0" d="M238.7,410.6c-1.3,0.5-1.7,0.1-1.8-1.1c-0.3-2.5-0.6-4.9-1.3-7.4c-0.3,2.5-0.7,4.9-1,7.4
		c-0.1,1.2-0.6,1.6-1.8,1.1c0.7-4.5,1.3-8.9,2-13.3c0.1-0.4,0.6-0.8,0.9-1.1c0.3,0.4,0.9,0.7,1,1.1
		C237.4,401.7,238,406.1,238.7,410.6z"/>
	<path class="st0" d="M261.9,402c-0.3,2.5-0.7,5-1,7.6c-0.1,1-0.5,1.5-1.8,1.1c0.2-1.6,0.5-3.2,0.7-4.8c0.4-2.9,0.9-5.8,1.4-8.7
		c0.1-0.3,0.5-0.8,0.7-0.9c0.3,0,0.9,0.4,1,0.7c0.8,4.6,1.5,9.2,2.2,13.7c-1.3,0.5-1.7,0.1-1.8-1c-0.3-2.5-0.7-5-1-7.6
		C262.1,402,262,402,261.9,402z"/>
	<path class="st0" d="M227.7,397.8c-2.7-0.4-2.7-0.4-3.1-1.6c1.8,0,3.5,0,5.5,0c-1.5,4.3-2.9,8.5-4.4,12.9c1.5,0,2.8,0,4.2,0
		c-0.3,1.9-1.2,2-6.5,1.5C224.8,406.4,226.2,402.2,227.7,397.8z"/>
	<path class="st0" d="M288.3,399.6c0-0.2-0.1-0.3-0.1-0.5c-0.1-0.7,0.3-1.8-0.9-1.7c-0.3,0-0.8,1.3-0.7,1.9c0.5,1.6,1.1,3.1,2,4.5
		c0.9,1.7,1.4,3.4,1.2,5.2c-0.2,1.3-1.1,1.8-2.4,1.8c-1.2,0-2.2-0.4-2.3-1.7c-0.1-1-0.5-2.4,1.4-2.8c0,0.8,0,1.5,0.1,2.2
		c0.1,0.3,0.5,0.6,0.8,0.9c0.3-0.3,0.8-0.6,0.7-0.9c-0.3-1.4-0.5-2.9-1-4.3c-0.9-2.1-2.6-3.9-2-6.3c0.2-0.8,1-1.8,1.6-1.9
		c0.8-0.2,2.1,0.2,2.7,0.8C290.4,397.9,289.8,399.1,288.3,399.6z"/>
	<path class="st0" d="M280.5,402.9c-0.7,0.4-1.3,0.8-2.2,1.3c0,1.5,0,3.2,0,5c1,0,1.9,0,2.8,0c-0.3,1.7-0.9,1.9-4.4,1.4
		c0-2.5,0-5,0-7.6c0-1.2,0-2.3,0-3.5c0-3.8,0-3.8,4.7-3.1c-0.8,0.5-1.3,1.2-1.7,1.1c-1.5-0.1-1.5,0.7-1.5,1.8c0,0.9,0,1.8,0,2.8
		c0.7,0.1,1.3,0.2,2,0.3C280.3,402.6,280.4,402.7,280.5,402.9z"/>
	<path class="st0" d="M273.4,409.3c-0.5,1.6-0.5,1.6-4.5,1.3c-0.1-0.3-0.2-0.7-0.2-1.1c0-4,0-8.1,0-12.1c0-0.5,0.4-0.9,0.7-1.4
		c0.3,0.5,0.7,0.9,0.7,1.4c0.1,3.3,0,6.5,0,9.8c0,0.6,0,1.2,0,1.9C271.4,409.2,272.4,409.3,273.4,409.3z"/>
</g>
</svg>
